<?xml version="1.0" encoding="utf-8"?>
<!-- Generator: Adobe Illustrator 18.1.1, SVG Export Plug-In . SVG Version: 6.00 Build 0)  -->
<svg version="1.1" id="Layer_1" xmlns="http://www.w3.org/2000/svg" xmlns:xlink="http://www.w3.org/1999/xlink" x="0px" y="0px"
	 viewBox="0 0 1000 1000" enable-background="new 0 0 1000 1000" xml:space="preserve">
<image overflow="visible" width="526" height="118" xlink:href="D8DA74DD.jpg"  transform="matrix(1 0 0 1 -7692 -7692)">
</image>
<circle fill="#FFFFFF" cx="508.2" cy="500" r="344.7"/>
<g>
	<path fill="#007CBB" d="M480.1,386v141.4c0,31.8-8.5,55.7-25.4,71.6c-17,15.9-41.7,23.9-74.2,23.9s-57.3-8-74.2-23.9
		c-17-15.9-25.4-39.8-25.4-71.6V386h48.8v139.3c0,19.6,4.2,34.1,12.5,43.5c8.4,9.4,21.1,14.1,38.3,14.1c17.2,0,29.9-4.7,38.2-14.1
		c8.2-9.4,12.4-23.9,12.4-43.5V386H480.1z"/>
	<path fill="#007CBB" d="M632,622.8c-21.4,0-40.2-4.7-56.4-14.1c-16.1-9.4-28.7-23.1-37.6-41c-9-17.9-13.4-39.5-13.4-64.7
		c0-25,4.7-46.5,14.1-64.5c9.4-18,22.7-31.9,39.9-41.5c17.2-9.7,37.3-14.5,60.4-14.5c25.2,0,45.6,4.7,61.1,14
		c15.6,9.3,27.9,23.7,37.1,43.3l-45.2,19.4c-3.8-12.5-10.2-21.7-19.3-27.7c-9.1-6-20.2-9-33.4-9c-13.2,0-24.6,3.1-34.3,9.4
		c-9.7,6.2-17.1,15.3-22.3,27.2c-5.2,11.9-7.8,26.5-7.8,43.6c0,17.7,2.5,32.6,7.4,44.7c4.9,12.1,12.3,21.2,22.1,27.2
		c9.8,6,21.9,9,36.2,9c7.8,0,15-0.9,21.7-2.8c6.7-1.9,12.5-4.7,17.5-8.5c4.9-3.8,8.8-8.6,11.7-14.5c2.8-5.9,4.2-12.7,4.2-20.5V532
		h-61.1v-35.7h103.2v123h-34.3l-3.5-50.9l8.5,6c-5.2,15.6-14.3,27.5-27.4,35.9C668.3,618.6,651.8,622.8,632,622.8z"/>
</g>
</svg>
